<svg xmlns="http://www.w3.org/2000/svg" xmlns:xlink="http://www.w3.org/1999/xlink" viewBox="0 0 96 96"><defs><style>.cls-1{fill:none;}.cls-2{opacity:0;}.cls-3{clip-path:url(#clip-path);}.cls-4{fill:#fff;}.cls-5{clip-path:url(#clip-path-3);}.cls-6{fill:#ffd400;}.cls-7{fill:#ffc20e;}.cls-8{fill:#cd992b;}.cls-9{fill:#00416b;}.cls-10{fill:#0083ca;}</style><clipPath id="clip-path"><rect class="cls-1" width="96" height="96"/></clipPath><clipPath id="clip-path-3"><path class="cls-1" d="M45.7,74.6l27.73-12A4.28,4.28,0,0,0,76,58.67V29.07a4.25,4.25,0,0,0-2.57-3.91l-27.67-12a4.23,4.23,0,0,0-3.5.05l-27.8,13A4.27,4.27,0,0,0,12,30.06V58.67a4.28,4.28,0,0,0,2.57,3.92l27.73,12A4.28,4.28,0,0,0,45.7,74.6Z"/></clipPath></defs><g id="icones"><g class="cls-2"><g class="cls-3"><g class="cls-2"><g class="cls-3"><rect class="cls-4" width="96" height="96"/></g></g></g></g><g class="cls-5"><path class="cls-6" d="M73.46,62.94,45.74,75.25a4.28,4.28,0,0,1-3.47,0L14.53,62.88A4.25,4.25,0,0,1,12,59V29.05a4.26,4.26,0,0,1,2.53-3.9L42.27,12.83a4.26,4.26,0,0,1,3.46,0L73.47,25.15A4.26,4.26,0,0,1,76,29.05V59A4.25,4.25,0,0,1,73.46,62.94Z"/><polygon class="cls-7" points="44 76.02 44 40.49 12 26.27 12 61.76 44 76.02"/><polygon class="cls-8" points="44 76.02 44 40.49 76 26.27 76 61.76 44 76.02"/></g><path class="cls-9" d="M23.62,31.47,55.31,17.39l8.57,3.72L32.19,35.18V45.69a1.76,1.76,0,0,1-2.49,1.6L24.65,45a1.76,1.76,0,0,1-1-1.6Z"/><path class="cls-1" d="M41.13,13.22l-24.87,11A7.13,7.13,0,0,0,12,30.77V57a7.1,7.1,0,0,0,4.21,6.49L41.13,74.6a7.12,7.12,0,0,0,5.79,0L71.79,63.5A7.1,7.1,0,0,0,76,57V30.77a7.12,7.12,0,0,0-4.22-6.5l-24.87-11a7.15,7.15,0,0,0-5.78,0"/><path class="cls-10" d="M74.69,74.69h0a2,2,0,0,1-2.83,0L64,66.86A2,2,0,1,1,66.86,64l7.83,7.83a2,2,0,0,1,0,2.83"/><path class="cls-9" d="M82.74,80.28l-2.46,2.46a2.27,2.27,0,0,1-3.2,0l-9.26-9.27a2.26,2.26,0,0,1,0-3.19l2.46-2.46a2.26,2.26,0,0,1,3.19,0l9.27,9.26a2.27,2.27,0,0,1,0,3.2"/><path class="cls-9" d="M53.48,70.87A17.41,17.41,0,1,1,70.89,53.46,17.43,17.43,0,0,1,53.48,70.87m0-29.91A12.5,12.5,0,1,0,66,53.46,12.52,12.52,0,0,0,53.48,41"/></g></svg>